<?xml version="1.0" standalone="no"?>
<!DOCTYPE svg PUBLIC "-//W3C//DTD SVG 20010904//EN"
 "http://www.w3.org/TR/2001/REC-SVG-20010904/DTD/svg10.dtd">
<svg version="1.0" xmlns="http://www.w3.org/2000/svg"
 width="944.000000pt" height="244.000000pt" viewBox="0 0 944.000000 244.000000"
 preserveAspectRatio="xMidYMid meet">
<metadata>
Created by potrace 1.12, written by Peter Selinger 2001-2015
</metadata>
<g transform="translate(0.000000,244.000000) scale(0.100000,-0.100000)"
fill="#000000" stroke="none">
<path d="M6808 2269 c-83 -19 -148 -90 -148 -159 0 -103 128 -186 245 -160 89
20 155 88 155 160 0 71 -65 140 -152 160 -49 11 -50 11 -100 -1z"/>
<path d="M7695 2198 c-154 -28 -272 -87 -319 -158 -14 -22 -41 -84 -59 -137
-29 -88 -36 -98 -59 -101 -22 -3 -28 -11 -43 -65 -9 -34 -18 -69 -21 -78 -3
-11 3 -18 16 -22 11 -3 20 -12 20 -21 0 -9 -49 -192 -110 -407 -60 -215 -110
-392 -110 -395 0 -2 85 -4 189 -4 171 0 189 2 193 18 72 265 224 790 231 800
7 9 53 12 167 12 l157 0 21 74 c12 41 22 77 22 80 0 3 -69 7 -152 8 -151 3
-153 3 -156 26 -5 31 26 121 54 158 43 59 81 69 244 68 l145 -2 38 66 c20 36
36 66 34 68 -1 2 -41 8 -87 13 -101 13 -345 12 -415 -1z"/>
<path d="M1815 2089 c-66 -55 -126 -106 -132 -113 -7 -6 -56 -167 -108 -356
-53 -190 -107 -368 -121 -397 -67 -139 -233 -213 -484 -216 -197 -3 -307 37
-360 133 -41 74 -34 125 53 437 43 150 77 275 77 278 0 3 -92 5 -204 5 l-205
0 -15 -52 c-162 -571 -178 -655 -143 -741 42 -99 168 -178 352 -219 89 -20
128 -22 360 -22 231 -1 273 2 379 22 130 26 235 61 348 118 98 49 213 163 255
254 17 36 72 215 123 398 l91 334 -65 116 c-35 64 -68 118 -73 119 -5 2 -63
-42 -128 -98z"/>
<path d="M5188 1988 l-56 -203 23 -25 c13 -14 32 -43 41 -65 17 -41 24 -151
10 -173 -4 -8 -34 -12 -79 -12 l-72 0 -18 -67 c-11 -41 -14 -69 -8 -71 5 -2
27 -16 49 -31 56 -41 76 -89 69 -168 -9 -122 -82 -220 -216 -292 -102 -54 -89
-61 124 -61 l184 0 15 53 c9 28 47 166 85 305 39 138 78 266 87 284 27 52 110
127 175 158 80 37 182 54 287 47 114 -8 168 -34 194 -94 25 -57 25 -58 -78
-431 -46 -166 -84 -307 -84 -312 0 -7 67 -9 187 -8 l188 3 102 365 c56 201
102 382 102 403 1 21 -8 56 -19 78 -98 190 -639 215 -901 40 -65 -44 -89 -46
-89 -10 0 19 111 433 127 475 4 12 -29 14 -184 14 l-190 0 -55 -202z"/>
<path d="M8525 2104 c-147 -49 -171 -62 -194 -102 -4 -8 -19 -15 -34 -15 -24
-2 -27 -8 -52 -107 -14 -58 -39 -150 -55 -205 -201 -673 -216 -750 -156 -801
78 -67 287 -92 506 -60 63 10 116 19 117 20 4 3 22 150 20 152 -1 0 -38 -3
-82 -9 -98 -11 -157 1 -182 39 -14 23 -15 33 -5 83 16 75 142 521 153 543 8
15 29 18 156 20 l146 3 19 65 c10 36 18 68 18 73 0 4 -53 7 -117 7 -142 0
-163 5 -163 35 0 12 18 86 40 164 22 78 40 143 40 146 0 8 -9 6 -175 -51z"/>
<path d="M2870 1854 c-140 -18 -260 -58 -347 -116 -70 -47 -94 -32 -76 48 l10
45 -86 -3 -86 -3 -80 -290 c-44 -160 -93 -315 -107 -345 -38 -76 -106 -156
-185 -216 l-67 -51 -77 -279 c-43 -153 -78 -282 -79 -286 0 -5 82 -8 183 -8
l183 0 85 308 c79 284 87 307 108 310 15 3 34 -7 55 -26 52 -48 91 -71 163
-95 59 -19 89 -22 233 -22 149 0 175 3 264 28 293 81 491 281 537 541 39 224
-87 388 -338 440 -77 17 -235 27 -293 20z m75 -190 c175 -61 222 -232 119
-436 -78 -153 -223 -228 -444 -228 -205 0 -302 65 -317 214 -6 59 17 167 48
228 54 106 189 202 329 233 79 18 196 13 265 -11z"/>
<path d="M4265 1854 c-269 -23 -478 -85 -550 -164 -17 -19 -17 -22 -1 -57 23
-52 37 -149 30 -205 -6 -47 -6 -47 31 -62 104 -44 178 -61 440 -106 184 -31
247 -49 281 -81 53 -49 33 -120 -45 -162 -65 -36 -170 -50 -323 -45 -116 4
-133 7 -185 34 -46 23 -62 38 -78 71 l-20 42 -106 1 -105 0 -24 -32 c-13 -18
-42 -52 -64 -76 -38 -41 -38 -43 -20 -58 49 -38 163 -86 252 -106 85 -19 127
-22 342 -22 214 0 258 3 347 22 297 63 443 178 443 348 0 49 -4 59 -30 84 -54
51 -225 99 -534 150 -161 27 -281 62 -312 91 -34 32 -33 87 4 122 51 49 102
60 272 61 149 1 157 0 213 -26 48 -23 61 -34 75 -68 l17 -40 183 0 182 0 0 33
c0 40 -30 105 -61 134 -44 40 -150 82 -249 98 -98 16 -317 26 -405 19z"/>
<path d="M6655 1768 c20 -17 46 -50 57 -72 38 -73 30 -125 -76 -506 -53 -190
-99 -353 -102 -362 -5 -16 4 -18 90 -18 81 0 95 2 100 18 9 28 254 915 261
945 l7 27 -186 0 -187 0 36 -32z"/>
<path d="M2566 662 c-4 -7 -185 -415 -203 -459 -4 -10 64 -13 321 -13 l326 0
19 38 c10 20 22 47 25 60 l7 22 -255 0 c-175 0 -256 3 -256 11 0 6 5 19 10 30
10 18 24 19 239 19 l228 0 26 60 26 60 -230 0 -230 0 16 30 16 30 259 0 260 0
25 56 c14 31 25 58 25 60 0 8 -649 4 -654 -4z"/>
<path d="M4536 662 c-4 -7 -185 -415 -203 -459 -4 -10 12 -13 62 -13 l66 0 26
60 26 60 231 0 231 0 45 34 c39 28 51 47 93 142 26 60 47 115 47 122 0 7 -7
24 -16 37 l-16 25 -294 0 c-161 0 -295 -4 -298 -8z m464 -119 c0 -4 -10 -31
-22 -60 l-22 -53 -193 0 c-106 0 -193 2 -193 5 0 2 11 29 24 60 l25 55 190 0
c105 0 191 -3 191 -7z"/>
<path d="M5516 662 c-4 -7 -185 -415 -203 -459 -4 -10 12 -13 62 -13 l66 0 26
60 26 60 162 0 163 0 17 -27 c14 -21 15 -32 7 -60 l-10 -33 64 0 65 0 24 52
c29 61 30 76 9 103 -14 19 -13 20 17 25 30 5 35 12 81 115 26 60 48 115 48
122 0 8 -7 25 -16 38 l-16 25 -294 0 c-161 0 -295 -4 -298 -8z m464 -119 c0
-4 -10 -31 -22 -60 l-22 -53 -193 0 c-106 0 -193 2 -193 5 0 2 11 29 24 60
l25 55 190 0 c105 0 191 -3 191 -7z"/>
<path d="M6496 662 c-4 -7 -185 -415 -203 -459 -4 -10 64 -13 321 -13 l326 0
19 38 c10 20 22 47 25 60 l7 22 -255 0 c-175 0 -256 3 -256 11 0 6 5 19 10 30
10 18 24 19 239 19 l228 0 26 60 26 60 -230 0 -230 0 16 30 16 30 259 0 260 0
25 56 c14 31 25 58 25 60 0 8 -649 4 -654 -4z"/>
<path d="M7501 644 c-37 -23 -49 -39 -82 -110 -44 -95 -45 -105 -23 -139 l16
-25 229 0 230 0 -16 -30 -16 -30 -259 0 -259 0 -25 -56 c-14 -31 -26 -58 -26
-60 0 -2 134 -4 298 -4 l297 0 43 33 c35 26 51 49 81 118 l38 87 -19 31 -20
31 -229 0 -230 0 16 30 16 30 259 0 260 0 25 56 c14 31 25 58 25 60 0 2 -132
4 -292 4 l-293 0 -44 -26z"/>
<path d="M8481 644 c-37 -23 -49 -39 -82 -110 -44 -95 -45 -105 -23 -139 l16
-25 229 0 230 0 -16 -30 -16 -30 -259 0 -259 0 -25 -56 c-14 -31 -26 -58 -26
-60 0 -2 134 -4 298 -4 l297 0 43 33 c35 26 51 49 81 118 l38 87 -19 31 -20
31 -229 0 -230 0 16 30 16 30 259 0 260 0 25 56 c14 31 25 58 25 60 0 2 -132
4 -292 4 l-293 0 -44 -26z"/>
<path d="M3506 575 l-37 -86 20 -32 20 -33 -46 -28 c-39 -25 -51 -42 -84 -114
-22 -46 -39 -86 -39 -88 0 -2 29 -4 66 -4 l65 0 24 54 c17 40 36 63 69 85 44
31 46 31 175 31 l130 0 20 -29 21 -29 -25 -56 -25 -56 68 0 67 0 37 86 38 86
-21 30 c-23 32 -23 33 36 72 33 21 47 42 77 111 l36 85 -67 0 -67 0 -24 -56
c-18 -44 -32 -62 -68 -85 -45 -28 -50 -29 -177 -29 l-131 0 -18 30 c-17 30
-17 31 8 85 l25 55 -68 0 -69 0 -36 -85z"/>
</g>
</svg>
